<svg xmlns="http://www.w3.org/2000/svg" height="800" width="1200" xml:space="preserve" y="0" x="0" id="Layer_1" version="1.1" viewBox="-33.705 -15.15 292.11 90.9"><style id="style364" type="text/css">.st3{fill:#2d4f8d}.st4{fill:#d5d7d8}.st7{fill:#4c4c4c}</style><g transform="translate(-14.6 -7.1)" id="g447"><g id="g439"><g id="g395"><circle id="circle366" r="30.3" cy="37.4" cx="44.9" fill="#de5833"/><path id="path368" d="M70.6 26.5c-1.4-3.3-3.4-6.3-6-8.9-2.6-2.6-5.5-4.6-8.9-6-3.4-1.5-7.1-2.2-10.8-2.2-3.8 0-7.4.7-10.8 2.2-3.3 1.4-6.3 3.4-8.9 6-2.6 2.6-4.6 5.5-6 8.9-1.5 3.4-2.2 7.1-2.2 10.8 0 3.7.7 7.4 2.2 10.8 1.4 3.3 3.4 6.3 6 8.9 2.6 2.6 5.5 4.6 8.9 6 3.4 1.5 7.1 2.2 10.8 2.2 3.8 0 7.4-.7 10.8-2.2 3.3-1.4 6.3-3.4 8.9-6 2.6-2.6 4.6-5.5 6-8.9 1.5-3.4 2.2-7.1 2.2-10.8 0-3.7-.7-7.3-2.2-10.8zM51 62.4c-1.6-2.7-5.8-10.4-5.8-16 0-13 8.8-1.9 8.8-12.3 0-2.5-1.2-11.2-8.8-13-1.9-2.5-6.3-4.9-13.2-3.9 0 0 1.2.3 2.5 1 0 0-2.5.3-2.6 2.1 0 0 5-.3 7.9.7-6.5.8-9.9 4.2-9.3 10.5.9 8.8 4.6 24.6 5.9 30.1-9.9-3.6-17-13.1-17-24.2 0-14.2 11.5-25.7 25.7-25.7s25.7 11.5 25.7 25.7c-.1 12.1-8.5 22.3-19.8 25z" fill="#fff"/><path d="M43.6 41.6c0-3.3 4.6-4.4 6.3-4.4 4.7 0 11.2-3 12.8-2.9 1.6.1 2.7.7 2.7 1.5 0 1.1-9.3 5.3-12.9 4.9-3.4-.3-4.2.1-4.2 1.5 0 1.2 2.5 2.3 5.2 2.3 4.1 0 8.1-1.8 9.3-.9 1 .8-2.8 3.5-7.2 3.5s-12-2.2-12-5.5z" id="Beak_2_" fill-rule="evenodd" clip-rule="evenodd" fill="#fed30a"/><g id="g379"><path id="path371" d="M51.6 27.4c-1.2-1.6-3.4-1.6-4.1.2 1.1-.9 2.6-1.1 4.1-.2z" class="st3"/><path id="path373" d="M38.1 27.5c-1.7-1-4.5-1.1-4.3 2 .9-1.9 1.9-2.3 4.3-2z" class="st3"/><path id="path375" d="M50.6 30.4c-.9 0-1.7.7-1.7 1.7 0 .9.7 1.7 1.7 1.7s1.7-.7 1.7-1.7-.8-1.7-1.7-1.7zm.6 1.5c-.3 0-.5-.2-.5-.5s.2-.5.5-.5.5.2.5.5-.2.5-.5.5z" class="st3"/><path id="path377" d="M37.7 31.3c-1.1 0-1.9.9-1.9 1.9 0 1.1.9 1.9 1.9 1.9 1.1 0 1.9-.9 1.9-1.9 0-1-.9-1.9-1.9-1.9zm.7 1.8c-.3 0-.6-.3-.6-.6s.3-.6.6-.6.6.3.6.6c-.1.3-.3.6-.6.6z" class="st3"/></g><g id="g387"><path id="path381" d="M33.5 23.1c-2.4 1.8-3.6 4.5-3.2 8.3.9 8.8 4.6 24.6 5.9 30.1.5.2.9.3 1.4.4-.8-3.4-4.7-19.6-6.4-32.1-.5-3.2.8-5.1 2.3-6.7z" class="st4"/><path id="path383" d="M39.5 21h.3c-2.7-1.3-6.8-1.3-7.9-1.3-.1.2-.2.4-.2.7 0-.1 4.9-.3 7.8.6z" class="st4"/><path id="path385" d="M34.8 18.3c-.8-.5-1.5-.9-1.9-1.1-.3 0-.7.1-1 .1 0 0 1.2.3 2.5 1h-.1c.3-.1.5 0 .5 0z" class="st4"/></g><g id="g393"><path id="path389" d="M55.1 51.8c-.9-.2-4.2 2.2-5.4 3.1-.1-.2-.1-.4-.2-.5-.2-.5-3.4-.2-4.2.6-2-1-6-2.8-6.1-1.7-.1 1.5 0 7.8.8 8.3.6.3 4-1.5 5.8-2.5 1.1.3 3.1 0 3.8-.4.1-.1.1-.1.2-.3 1.6.6 4.9 1.8 5.7 1.6.9-.3.7-7.9-.4-8.2z" fill="#67bd47"/><path id="path391" d="M45.9 59.1c-1.1-.2-.7-1.3-.7-3.8-.3.2-.4.4-.4.6 0 2.5-.4 3.6.7 3.8 1.1.3 3.1 0 3.8-.4.1-.1.2-.3.3-.5-.9.3-2.7.6-3.7.3z" fill="#43a347"/></g></g><g id="g437"><g id="g399"><path id="path397" d="M86.6 45.5v-18h6.5c6.2 0 9 4.5 9 8.8 0 4.6-2.8 9.2-9 9.2zm2.1-2.1h4.5c4.8 0 6.9-3.6 6.9-7.1 0-3.3-2.2-6.8-6.9-6.8h-4.5z" class="st7"/></g><g id="g403"><path id="path401" d="M110.3 45.7c-3.4 0-5.5-2.3-5.5-5.8v-7h2v6.9c0 2.6 1.5 4.1 3.9 4.1 2.3 0 4-1.8 4-4.2v-6.8h2v12.6H115l-.1-2.2-.3.4c-1.1 1.3-2.5 1.9-4.3 2z" class="st7"/></g><g id="g407"><path id="path405" d="M126.2 45.7c-3.3 0-6.6-2-6.6-6.5 0-3.9 2.6-6.5 6.6-6.5 1.8 0 3.2.6 4.5 1.8l-1.2 1.2c-.9-.8-2-1.2-3.2-1.2-2.8 0-4.7 1.9-4.7 4.7 0 3.2 2.3 4.7 4.7 4.7 1.3 0 2.5-.4 3.4-1.3l1.2 1.2c-1.4 1.2-3 1.9-4.7 1.9z" class="st7"/></g><g id="g411"><path id="polygon409" class="st7" d="M135.2 45.5h-1.9v-18h1.9v10.9l5.4-5.5h2.6l-6 5.9 6.7 6.6v.1h-2.5l-6.2-6.2z"/></g><g id="g415"><path id="path413" d="M146.2 45.5v-18h6.5c6.2 0 9 4.5 9 8.8 0 4.6-2.8 9.2-9 9.2zm2.2-2.1h4.5c4.8 0 6.9-3.6 6.9-7.1 0-3.3-2.2-6.8-6.9-6.8h-4.5z" class="st7"/></g><g id="g419"><path id="path417" d="M169.9 45.7c-3.4 0-5.5-2.3-5.5-5.8v-7h2v6.9c0 2.6 1.5 4.1 3.9 4.1 2.3 0 4-1.8 4-4.2v-6.8h2v12.6h-1.8l-.1-2.2-.3.4c-.9 1.3-2.4 1.9-4.2 2z" class="st7"/></g><g id="g423"><path id="path421" d="M185.8 45.7c-3.3 0-6.6-2-6.6-6.5 0-3.9 2.6-6.5 6.6-6.5 1.8 0 3.2.6 4.5 1.8l-1.2 1.2c-.9-.8-2-1.2-3.2-1.2-2.8 0-4.7 1.9-4.7 4.7 0 3.2 2.3 4.7 4.7 4.7 1.3 0 2.5-.4 3.4-1.3l1.2 1.2-.1.1c-1.3 1.2-2.8 1.8-4.6 1.8z" class="st7"/></g><g id="g427"><path id="polygon425" class="st7" d="M194.9 45.5H193v-18h1.9v10.9l5.4-5.5h2.5l-5.9 5.9 6.6 6.6v.1H201l-6.1-6.2z"/></g><g id="g431"><path id="path429" d="M213.6 45.8c-6.9 0-9.3-5-9.3-9.1 0-2.8.9-5.2 2.6-6.9 1.7-1.7 4-2.6 6.7-2.6 2.5 0 4.7.9 6.5 2.6l-1.2 1.4c-1.4-1.3-3.4-2.1-5.3-2.1-5 0-7.3 3.9-7.3 7.6 0 3.6 2.3 7.2 7.4 7.2 1.8 0 3.6-.7 5-1.8l.1-.1v-4.5h-5.6v-1.8h7.5v7c-2 2.1-4.3 3.1-7.1 3.1z" class="st7"/></g><g id="g435"><path id="path433" d="M229.6 45.7c-3.8 0-6.5-2.7-6.5-6.5s2.8-6.6 6.5-6.6c3.9 0 6.6 2.7 6.6 6.6-.2 3.7-2.9 6.5-6.6 6.5zm0-11.4c-2.7 0-4.6 2-4.6 4.8 0 2.7 1.9 4.7 4.6 4.7 2.7 0 4.6-1.9 4.7-4.7-.2-2.7-2-4.8-4.7-4.8z" class="st7"/></g></g></g><g id="g445"><path id="path441" d="M238 46.8c.2-.1.3-.2.3-.4s-.1-.3-.2-.4c-.1-.1-.3-.1-.6-.1s-.5 0-.6.1v1.6h.4V47h.2c.2 0 .3.1.3.3.1.2.1.3.1.4h.4c0-.1-.1-.2-.1-.4.1-.3 0-.4-.2-.5zm-.4-.1h-.2v-.5h.2c.2 0 .3.1.3.2.1.3-.1.3-.3.3z" class="st7"/><path id="path443" d="M237.6 45.2c-.9 0-1.7.7-1.7 1.6 0 .9.7 1.7 1.7 1.7.9 0 1.7-.7 1.7-1.7 0-.9-.7-1.6-1.7-1.6zm.1 2.9c-.7 0-1.3-.6-1.3-1.3 0-.7.5-1.3 1.3-1.3.7 0 1.3.6 1.3 1.3-.1.7-.6 1.3-1.3 1.3z" class="st7"/></g></g></svg>